<svg id="Layer_1" data-name="Layer 1" xmlns="http://www.w3.org/2000/svg" viewBox="0 0 344.44 190"><defs><style>.cls-1{fill:#fff;}</style></defs><title>asaro_full</title><path class="cls-1" d="M269.91,408.73a54.86,54.86,0,0,1,8.54-3.42c1.95,2,3.95,4.13,5.73,6.05,2.43,2.62,4.88,5.27,7.37,7.7l2.35,2.29,2.3-2.33c2.34-2.37,4.69-5,7-7.57,1.88-2.11,3.76-4.22,5.6-6.16a52.75,52.75,0,0,1,8.67,3.45l-23.76,23.47Z" transform="translate(-125 -326)"/><path class="cls-1" d="M333.59,392.8a72.73,72.73,0,0,0-19.54-8.75l-20.37-40.38L273.26,384a73.13,73.13,0,0,0-10.75,4,73.9,73.9,0,0,0-8.77,4.75l-5.91-5.93a82.38,82.38,0,0,1,18.46-9.17l1.25-.44,26-51.15,26,51.14,1.25.44a82.94,82.94,0,0,1,18.63,9.29Z" transform="translate(-125 -326)"/><path class="cls-1" d="M221.6,483.45c-7-1.79-9.81-4.31-9.81-8.69a8.77,8.77,0,0,1,9-8.68,8.94,8.94,0,0,1,8.82,9v.54H236v-.54a14.87,14.87,0,0,0-15.17-14.89c-8.78,0-15.39,6.34-15.39,14.75,0,9.71,6.87,12.45,15.17,14.8,7.14,2.06,10.32,5.27,10.32,10.41a9.92,9.92,0,0,1-10.1,10c-6.12,0-10.13-4-10.47-10.42l0-.5H204v.54c.14,9.56,7.06,16.24,16.82,16.24,9.23,0,16.46-7,16.46-16,0-8.41-5.13-13.82-15.69-16.52" transform="translate(-125 -326)"/><path class="cls-1" d="M386.94,478.76A16.85,16.85,0,0,0,382,466.49c-3.61-3.49-9-5.34-15.51-5.34H350v53.92h6.36V467h9.53c13.62,0,14.68,8.88,14.68,11.6,0,7.07-5.52,11.47-14.39,11.47H360l18.73,25h8l-15-19.81c8.89-1.11,15.24-7.91,15.24-16.5" transform="translate(-125 -326)"/><path class="cls-1" d="M463.08,488.18a22.1,22.1,0,0,1-22.18,22c-12,0-22.1-9.95-22.1-21.74,0-12.1,10.09-22.32,22-22.32a22.2,22.2,0,0,1,22.25,22.1m-22.18-28a28.35,28.35,0,0,0-28.46,28.18c0,15,13,27.6,28.46,27.6A28.65,28.65,0,0,0,461,507.77a27.42,27.42,0,0,0,8.4-19.66c0-15.38-12.8-27.89-28.54-27.89" transform="translate(-125 -326)"/><polygon class="cls-1" points="0 189.08 6.62 189.08 10.31 180.71 12.9 174.73 14.9 169.95 24.75 146.83 34.1 169.2 21.89 169.2 19.29 175.06 36.62 175.06 42.64 189.08 49.59 189.08 24.8 131.39 0 189.08"/><polygon class="cls-1" points="143.87 189.08 150.49 189.08 154.18 180.71 156.77 174.73 158.77 169.95 168.63 146.83 177.97 169.2 165.77 169.2 163.16 175.06 180.49 175.06 186.52 189.08 193.47 189.08 168.67 131.39 143.87 189.08"/></svg>