<svg id="Layer_1" data-name="Layer 1" xmlns="http://www.w3.org/2000/svg" viewBox="0 0 91.59 106.15"><defs><style>.cls-1{fill:#fff;}</style></defs><title>asaro_head</title><path class="cls-1" d="M22.08,82.67a54.74,54.74,0,0,1,8.54-3.42c1.95,2,3.95,4.13,5.73,6,2.43,2.62,4.88,5.27,7.37,7.7l2.35,2.29L48.37,93c2.34-2.37,4.69-5,7-7.57,1.88-2.11,3.76-4.22,5.6-6.16a52.73,52.73,0,0,1,8.67,3.45L45.88,106.15Z"/><path class="cls-1" d="M85.76,66.74A73,73,0,0,0,66.22,58L45.85,17.61,25.43,57.94a73.44,73.44,0,0,0-10.75,4,72.72,72.72,0,0,0-8.77,4.75L0,60.76a82.36,82.36,0,0,1,18.46-9.17l1.25-.44L45.71,0l26,51.14,1.25.44a82.73,82.73,0,0,1,18.63,9.29Z"/></svg>