<?xml version="1.0" standalone="no"?>
<!DOCTYPE svg PUBLIC "-//W3C//DTD SVG 20010904//EN"
 "http://www.w3.org/TR/2001/REC-SVG-20010904/DTD/svg10.dtd">
<svg version="1.0" xmlns="http://www.w3.org/2000/svg"
 width="512.000000pt" height="512.000000pt" viewBox="0 0 512.000000 512.000000"
 preserveAspectRatio="xMidYMid meet">
<metadata>
Created by potrace 1.11, written by Peter Selinger 2001-2013
</metadata>
<g transform="translate(0.000000,512.000000) scale(0.100000,-0.100000)"
fill="#000000" stroke="none">
<path d="M0 2560 l0 -2560 2560 0 2560 0 0 2560 0 2560 -2560 0 -2560 0 0
-2560z m3043 1041 l483 -953 99 -37 c200 -74 412 -179 581 -287 l61 -39 -106
-112 -106 -112 -120 69 c-149 86 -307 157 -481 217 l-134 45 -382 756 -381
755 -43 -84 c-24 -46 -195 -385 -381 -754 l-338 -670 -110 -37 c-60 -21 -139
-50 -175 -64 -89 -37 -313 -148 -381 -190 -31 -19 -61 -34 -65 -34 -5 0 -58
49 -118 109 l-108 108 64 40 c167 105 424 231 598 293 36 13 70 28 76 34 6 6
227 437 490 958 264 521 483 946 487 945 4 -1 225 -431 490 -956z m-917 -2158
c76 -82 206 -217 288 -301 l150 -152 54 52 c30 29 153 162 274 296 121 134
226 246 232 248 23 9 316 -108 316 -126 0 -4 -198 -204 -441 -444 l-441 -437
-441 438 c-243 240 -443 440 -445 444 -4 10 271 124 310 128 3 1 68 -65 144
-146z"/>
</g>
</svg>
