<svg id="Layer_1" data-name="Layer 1" xmlns="http://www.w3.org/2000/svg" viewBox="0 0 344.44 58.62"><defs><style>.cls-1{fill:#fff;}</style></defs><title>asaro</title><path class="cls-1" d="M221.6,483.45c-7-1.79-9.81-4.31-9.81-8.69a8.77,8.77,0,0,1,9-8.68,8.94,8.94,0,0,1,8.82,9v.54H236v-.54a14.87,14.87,0,0,0-15.17-14.89c-8.78,0-15.39,6.34-15.39,14.75,0,9.71,6.87,12.45,15.17,14.8,7.14,2.06,10.32,5.27,10.32,10.41a9.92,9.92,0,0,1-10.1,10c-6.12,0-10.13-4-10.47-10.42l0-.5H204v.54c.14,9.56,7.06,16.24,16.82,16.24,9.23,0,16.46-7,16.46-16,0-8.41-5.13-13.82-15.69-16.52" transform="translate(-125 -457.38)"/><path class="cls-1" d="M386.94,478.76A16.85,16.85,0,0,0,382,466.49c-3.61-3.49-9-5.34-15.51-5.34H350v53.92h6.36V467h9.53c13.62,0,14.68,8.88,14.68,11.6,0,7.07-5.52,11.47-14.39,11.47H360l18.73,25h8l-15-19.81c8.89-1.11,15.24-7.91,15.24-16.5" transform="translate(-125 -457.38)"/><path class="cls-1" d="M463.08,488.18a22.1,22.1,0,0,1-22.18,22c-12,0-22.1-9.95-22.1-21.74,0-12.1,10.09-22.32,22-22.32a22.2,22.2,0,0,1,22.25,22.1m-22.18-28a28.35,28.35,0,0,0-28.46,28.18c0,15,13,27.6,28.46,27.6A28.65,28.65,0,0,0,461,507.77a27.42,27.42,0,0,0,8.4-19.66c0-15.38-12.8-27.89-28.54-27.89" transform="translate(-125 -457.38)"/><polygon class="cls-1" points="0 57.69 6.62 57.69 10.31 49.32 12.9 43.34 14.9 38.56 24.75 15.45 34.1 37.82 21.89 37.82 19.29 43.67 36.62 43.67 42.64 57.69 49.59 57.69 24.8 0 0 57.69"/><polygon class="cls-1" points="143.87 57.69 150.49 57.69 154.18 49.32 156.77 43.34 158.77 38.56 168.63 15.45 177.97 37.82 165.77 37.82 163.16 43.67 180.49 43.67 186.52 57.69 193.47 57.69 168.67 0 143.87 57.69"/></svg>